<?xml version="1.0" standalone="no"?>
<!DOCTYPE svg PUBLIC "-//W3C//DTD SVG 20010904//EN"
 "http://www.w3.org/TR/2001/REC-SVG-20010904/DTD/svg10.dtd">
<svg version="1.0" xmlns="http://www.w3.org/2000/svg"
 width="500.000000pt" height="500.000000pt" viewBox="0 0 500.000000 500.000000"
 preserveAspectRatio="xMidYMid meet">
<metadata>
Created by potrace 1.14, written by Peter Selinger 2001-2017
</metadata>
<g transform="translate(0.000000,500.000000) scale(0.100000,-0.100000)"
fill="#000000" stroke="none">
<path d="M76 3370 c-2 -5 0 -108 3 -120 0 -3 31 -5 69 -5 l67 0 1 -175 c1 -96
2 -181 3 -187 1 -9 23 -13 76 -13 l75 0 0 185 c0 141 3 185 13 186 6 1 32 3
57 4 25 1 52 3 60 4 12 1 14 13 10 63 l-5 63 -213 0 c-118 0 -215 -2 -216 -5z"/>
<path d="M538 3361 c-2 -9 -4 -122 -3 -251 l0 -235 213 -3 212 -2 0 65 0 65
-77 1 c-43 0 -104 0 -135 -1 l-58 -1 0 30 0 31 88 1 c48 0 108 0 135 -1 l47
-1 0 63 0 63 -135 -1 -136 0 3 30 3 31 125 1 c69 1 129 2 133 3 4 0 7 29 5 64
l-3 62 -207 1 c-180 0 -207 -2 -210 -15z"/>
<path d="M992 3371 c-5 -3 -8 -117 -8 -253 l0 -248 136 0 c166 0 221 14 278
69 29 29 43 52 52 92 19 77 15 159 -10 218 -45 103 -92 123 -292 126 -81 1
-151 -1 -156 -4z m265 -142 c72 -44 63 -190 -13 -219 -14 -6 -43 -10 -65 -10
l-39 0 0 118 c0 65 2 121 5 124 10 10 92 0 112 -13z"/>
<path d="M1490 3369 c0 -3 20 -36 45 -72 25 -37 45 -70 45 -75 0 -5 -22 -41
-49 -80 -54 -77 -53 -78 21 -81 31 -1 39 3 58 34 12 19 25 35 29 35 3 0 14
-15 24 -33 17 -30 22 -33 72 -35 30 -1 55 2 55 6 0 4 -22 40 -49 81 l-48 74
48 73 c27 40 49 74 49 76 0 2 -24 4 -54 4 -52 1 -56 -1 -73 -33 -9 -18 -21
-33 -25 -33 -5 0 -15 15 -24 33 -14 30 -19 32 -70 33 -30 0 -54 -3 -54 -7z"/>
<path d="M275 2703 c-53 -11 -86 -26 -113 -53 -99 -94 -103 -302 -8 -403 86
-92 249 -76 317 30 35 56 36 73 7 73 -17 0 -28 -11 -42 -40 -46 -96 -193 -106
-258 -19 -36 49 -47 90 -44 166 3 82 25 134 74 171 73 56 205 25 234 -55 9
-24 18 -33 35 -33 13 0 23 5 23 10 0 18 -37 84 -56 101 -44 38 -121 62 -169
52z"/>
<path d="M576 2690 c-2 -3 -3 -115 -2 -250 l1 -245 23 -3 c22 -3 22 -3 22 137
0 139 0 141 28 171 30 33 81 45 119 27 41 -19 53 -64 53 -206 0 -124 1 -131
20 -131 23 0 22 -10 22 157 0 141 -8 172 -52 205 -51 37 -140 27 -176 -20 -11
-14 -13 -3 -14 75 0 87 -1 92 -21 90 -11 -1 -22 -4 -23 -7z"/>
<path d="M1329 2683 c-3 -65 -4 -461 -1 -475 3 -10 13 -18 23 -18 18 0 19 12
19 255 0 248 -1 255 -20 255 -12 0 -20 -7 -21 -17z"/>
<path d="M1820 2445 c0 -245 1 -255 19 -255 11 0 22 8 24 18 3 9 5 124 4 255
l-1 237 -23 0 -23 0 0 -255z"/>
<path d="M3124 2692 c-7 -5 -10 -87 -10 -252 l1 -245 23 -3 c21 -3 22 0 22 72
0 72 13 106 40 106 4 0 41 -40 80 -90 55 -69 78 -90 96 -90 13 0 24 3 24 6 0
5 -56 81 -70 94 -10 9 -76 95 -84 109 -6 9 16 37 70 92 75 76 77 79 49 79 -23
0 -46 -17 -117 -91 l-88 -91 0 156 c0 157 -3 170 -36 148z"/>
<path d="M4424 2686 c-3 -8 -4 -97 -2 -198 3 -172 4 -185 27 -221 57 -93 210
-111 296 -35 51 44 60 89 60 290 -1 170 -1 173 -23 176 -26 4 -24 19 -26 -198
-1 -179 -8 -211 -53 -244 -37 -27 -121 -33 -162 -12 -64 34 -71 59 -71 269 0
181 -1 187 -20 187 -11 0 -23 -6 -26 -14z"/>
<path d="M1524 2560 c-22 -9 -47 -29 -57 -43 -16 -25 -16 -26 3 -32 14 -4 31
3 56 23 30 25 43 29 77 26 50 -5 78 -30 82 -73 2 -28 -1 -32 -34 -40 -20 -5
-57 -13 -82 -16 -106 -15 -153 -84 -111 -162 36 -66 139 -81 197 -27 14 13 26
21 26 19 4 -14 7 -26 8 -35 0 -5 10 -10 21 -10 19 0 20 7 20 151 0 165 -8 196
-59 219 -42 20 -105 20 -147 0z m160 -221 c-2 -31 -10 -59 -21 -72 -59 -66
-173 -46 -173 30 0 39 25 56 111 74 46 9 85 17 85 18 1 1 0 -22 -2 -50z"/>
<path d="M2035 2558 c-19 -10 -47 -37 -62 -60 -24 -36 -28 -51 -28 -117 0 -62
5 -83 23 -113 30 -48 67 -74 115 -81 112 -15 190 69 189 203 0 86 -51 161
-121 180 -47 12 -73 10 -116 -12z m148 -56 c33 -32 50 -90 43 -150 -9 -76 -56
-124 -121 -124 -70 0 -117 62 -117 154 1 128 113 197 195 120z"/>
<path d="M2463 2571 c-12 -3 -33 -16 -47 -28 l-26 -23 0 25 c0 19 -5 25 -23
25 l-22 0 0 -187 c0 -185 0 -188 22 -191 21 -3 22 0 25 142 3 140 4 147 28
170 14 14 41 26 63 29 32 4 44 0 70 -23 l32 -28 0 -146 c0 -145 0 -146 23
-146 22 0 22 1 22 148 0 128 -3 151 -20 179 -29 49 -88 70 -147 54z"/>
<path d="M2805 2566 c-68 -31 -105 -107 -99 -203 5 -79 45 -140 104 -159 24
-7 32 -8 80 -5 10 1 35 15 55 32 l35 31 -4 -58 c-5 -77 -11 -89 -51 -109 -46
-21 -100 -14 -142 19 -27 22 -37 25 -48 16 -22 -18 -1 -48 48 -70 49 -22 127
-21 175 4 57 29 63 55 63 269 1 253 3 237 -21 237 -16 0 -20 -7 -20 -32 l0
-32 -31 32 c-17 18 -37 32 -44 32 -7 0 -25 2 -41 5 -16 3 -42 -1 -59 -9z m117
-48 c43 -22 67 -117 48 -189 -16 -58 -52 -89 -104 -89 -74 0 -116 53 -116 145
0 120 79 181 172 133z"/>
<path d="M3532 2573 c-12 -2 -40 -21 -61 -41 -46 -44 -66 -104 -58 -178 7 -66
28 -106 73 -140 28 -22 46 -27 88 -27 71 0 111 25 141 88 50 104 25 226 -58
280 -24 15 -90 25 -125 18z m105 -59 c76 -48 76 -219 -1 -269 -32 -21 -89 -22
-120 -2 -53 35 -74 128 -47 208 26 78 100 106 168 63z"/>
<path d="M3921 2568 c-13 -4 -32 -18 -43 -30 l-18 -21 0 26 c0 21 -5 27 -22
27 l-23 0 1 -178 c2 -217 0 -202 24 -202 19 0 20 7 20 141 l0 141 29 29 c26
26 52 35 89 30 7 -1 12 9 12 22 0 27 -24 32 -69 15z"/>
<path d="M4130 2559 c-16 -10 -30 -24 -30 -29 0 -6 -4 -9 -9 -5 -6 3 -8 14 -6
25 3 16 -2 20 -21 20 l-24 0 0 -191 0 -190 23 3 c21 3 22 6 23 136 2 145 10
175 54 196 67 33 139 -11 141 -85 0 -21 1 -86 1 -144 1 -101 1 -104 22 -101
20 3 21 8 21 152 0 139 -2 151 -23 181 -35 50 -117 65 -172 32z"/>
<path d="M950 2429 c0 -158 11 -199 61 -224 54 -29 143 -11 168 32 9 15 10 12
11 -15 0 -29 3 -33 22 -30 23 3 23 4 23 191 0 186 0 187 -22 187 -21 0 -22 -4
-25 -139 -3 -131 -4 -141 -27 -165 -29 -31 -73 -42 -110 -26 -47 19 -55 48
-56 196 0 132 0 134 -22 134 -23 0 -23 -1 -23 -141z"/>
</g>
</svg>
